Coordinates
version=1
nRows=16
nColumns=42
inDegrees=yes

Units are S.I. units (second, meters, Newtons, ...)
If the header above contains a line with 'inDegrees', this indicates whether rotational values are in degrees (yes) or radians (no).

endheader
time	pelvis_tilt	pelvis_list	pelvis_rotation	pelvis_tx	pelvis_ty	pelvis_tz	hip_flexion_r	hip_adduction_r	hip_rotation_r	knee_angle_r	knee_adduction_r	knee_angle_r_beta	ankle_angle_r	subtalar_angle_r	mtp_angle_r	hip_flexion_l	hip_adduction_l	hip_rotation_l	knee_angle_l	knee_adduction_l	knee_angle_l_beta	ankle_angle_l	subtalar_angle_l	mtp_angle_l	lumbar_extension	lumbar_bending	lumbar_rotation	arm_flex_r	arm_add_r	arm_rot_r	elbow_flex_r	pro_sup_r	wrist_flex_r	wrist_dev_r	arm_flex_l	arm_add_l	arm_rot_l	elbow_flex_l	pro_sup_l	wrist_flex_l	wrist_dev_l
      0.00000000	     -2.15391910	     -1.81170760	      2.36014588	     -2.01451520	      0.90235207	     -0.18593710	     16.41579961	     -6.65155280	      3.01333607	     53.23693494	     16.55175804	      0.92915980	      0.00000000	      3.21421599	     -9.46812368	      0.62463291	     -6.47703089	     -4.84382067	      4.31304893	     18.77892818	      0.07527690	      8.08474462	      5.37860548	     -9.46812368	     -9.83077967	      1.41768178	     -1.07013697	     -6.89591238	    -14.12327274	     -5.95792825	     17.78027245	     90.00000001	      0.00000000	      0.00000000	     -2.87991767	    -13.82432748	      3.90026980	     23.64532430	     90.00000001	      0.00000000	      0.00000000
      0.01000000	     -1.36284751	     -1.84033336	      3.24544007	     -2.00409639	      0.90276150	     -0.18823498	     16.27970869	     -7.05695738	     -4.75632094	     45.96618697	     12.18485655	      0.80226131	     11.01470140	    -10.27420323	     -9.33610638	     -1.00073597	     -6.34259302	     -4.81651557	      4.15704549	     18.55504350	      0.07255413	      8.74837870	      6.55217086	     -9.33610638	    -10.55374941	      1.69546289	     -1.66506205	     -6.95925071	    -14.08892433	     -6.45029869	     17.69898645	     90.00000001	      0.00000000	      0.00000000	     -2.41532381	    -14.06680090	      4.42153418	     24.30208195	     90.00000001	      0.00000000	      0.00000000
      0.02000000	     -1.15439196	     -1.94232922	      3.74831371	     -1.99491732	      0.90249819	     -0.18972020	     16.75151658	     -6.96005976	     -5.33327541	     43.63609622	     12.14732020	      0.76159355	     10.89723696	    -11.34481705	     -9.23748957	     -1.88604550	     -6.33531745	     -4.69775255	      4.04221842	     18.41360816	      0.07055002	      9.26867740	      7.09135075	     -9.23748957	    -10.77377817	      1.95804776	     -1.92402598	     -6.93687556	    -14.05526291	     -6.76213466	     17.60105394	     90.00000001	      0.00000000	      0.00000000	     -1.86945856	    -14.25594129	      4.69932829	     24.86160477	     90.00000001	      0.00000000	      0.00000000
      0.03000000	     -1.35631481	     -1.70172579	      3.95147384	     -1.98598105	      0.90145639	     -0.19089681	     17.92554165	     -7.25543772	     -6.14501232	     41.78787360	     11.76132075	      0.72933598	     10.92289848	    -11.21339104	     -9.21852478	     -2.26851015	     -5.90878257	     -4.97590247	      4.19038287	     18.24781711	      0.07313598	      9.57712922	      7.14128401	     -9.21852478	    -10.58472832	      1.76381628	     -1.94175852	     -7.07117834	    -14.00367649	     -6.77117991	     17.66413870	     90.00000001	      0.00000000	      0.00000000	     -1.34575684	    -14.42950275	      4.73608981	     25.33866234	     90.00000001	      0.00000000	      0.00000000
      0.04000000	     -0.83283790	     -2.14466534	      4.61239761	     -1.97668218	      0.90146140	     -0.19216262	     17.72575679	     -6.68997074	     -7.04931972	     38.87535928	     11.59028553	      0.67850302	     10.50523158	    -11.76677991	     -9.13824586	     -3.47011103	     -6.41257052	     -4.36480394	      3.93178085	     18.24539124	      0.06862252	     10.36245642	      7.65707729	     -9.13824586	    -11.14726546	      2.45765184	     -2.34689938	     -6.86402073	    -13.96258475	     -7.29955201	     17.41949020	     90.00000001	      0.00000000	      0.00000000	     -0.83580301	    -14.65482174	      5.28973174	     25.91355065	     90.00000001	      0.00000000	      0.00000000
      0.05000000	     -0.94206464	     -2.09959093	      4.92334694	     -1.96781109	      0.90041504	     -0.19330263	     18.51035030	     -6.76656324	     -7.72209565	     36.48000015	     11.45261852	      0.63669611	     10.10519145	    -11.39778674	     -9.09768314	     -3.88782454	     -6.22677729	     -4.16110112	      4.02096512	     18.08210211	      0.07017908	     10.99302247	      7.77439086	     -9.09768314	    -11.07877629	      2.52076918	     -2.48746336	     -6.85930662	    -13.91492552	     -7.42928238	     17.34108062	     90.00000001	      0.00000000	      0.00000000	     -0.34449853	    -14.83149953	      5.48937263	     26.39396133	     90.00000001	      0.00000000	      0.00000000
      0.06000000	     -0.72013438	     -2.27479102	      5.24671581	     -1.95863242	      0.89971822	     -0.19403891	     18.73582971	     -6.43937277	     -8.52990844	     33.69789704	     11.15936172	      0.58813925	      9.38009045	    -11.32363778	     -9.01966608	     -4.73450878	     -6.44977333	     -3.93770075	      3.97692154	     18.13594387	      0.06941037	     11.51361520	      7.70757009	     -9.01966608	    -11.35249740	      2.83621286	     -2.58455281	     -6.80856761	    -13.82149804	     -7.80058425	     17.26622208	     90.00000001	      0.00000000	      0.00000000	      0.15220621	    -15.04806711	      5.82790761	     26.85280587	     90.00000001	      0.00000000	      0.00000000
      0.07000000	     -0.79811200	     -2.26502537	      5.44660084	     -1.94971273	      0.89851989	     -0.19492758	     19.32620458	     -6.39704154	     -9.13540655	     30.97822114	     11.02215970	      0.54067196	      8.54412396	    -10.78385180	     -8.94829025	     -5.18698360	     -6.32930888	     -3.67654827	      4.07818447	     18.01659893	      0.07117775	     12.07621676	      7.53639019	     -8.94829025	    -11.34009155	      2.94435853	     -2.64819519	     -6.76900296	    -13.78154549	     -7.98290096	     17.22129965	     90.00000001	      0.00000000	      0.00000000	      0.59799501	    -15.20789857	      6.04794730	     27.28345946	     90.00000001	      0.00000000	      0.00000000
      0.08000000	     -1.14506767	     -2.01033402	      5.49765021	     -1.94089376	      0.89684414	     -0.19573763	     20.32408912	     -6.62372121	     -9.80383635	     28.53027493	     10.75926237	      0.49794723	      7.69438920	     -9.84597893	     -8.92557282	     -5.32019497	     -5.80821366	     -3.66097814	      4.33507635	     17.69136826	      0.07566136	     12.58334613	      7.46329508	     -8.92557282	    -11.05888549	      2.73918371	     -2.64597051	     -6.81457446	    -13.72803660	     -7.99853566	     17.30243347	     90.00000001	      0.00000000	      0.00000000	      0.97252983	    -15.37731955	      6.14223065	     27.71133142	     90.00000001	      0.00000000	      0.00000000
      0.09000000	     -1.35787986	     -1.91054538	      5.69833632	     -1.93202156	      0.89528876	     -0.19659380	     20.86887474	     -6.73430169	    -10.28129127	     25.53241026	     10.83424290	      0.44562462	      6.60333640	     -8.66164989	     -8.89803660	     -5.54948616	     -5.59354162	     -3.29548696	      4.58323068	     17.60352456	      0.07999247	     13.28432961	      7.32994773	     -8.89803660	    -10.92257077	      2.74810950	     -2.71272244	     -6.81144121	    -13.66471421	     -8.08089527	     17.18976704	     90.00000001	      0.00000000	      0.00000000	      1.38851069	    -15.53088208	      6.35730574	     28.10289424	     90.00000001	      0.00000000	      0.00000000
      0.10000000	     -1.06393725	     -2.15355502	      6.00148051	     -1.92250950	      0.89432759	     -0.19693937	     20.52519108	     -6.22809276	    -10.77752101	     21.95802417	     10.73079444	      0.38323982	      5.45469898	     -8.18274224	     -8.83597164	     -6.48426272	     -6.03018153	     -2.87246817	      4.52671173	     17.84102109	      0.07900602	     13.79246956	      6.84300845	     -8.83597164	    -11.27413244	      3.14752902	     -2.85313026	     -6.70371392	    -13.54225678	     -8.41379089	     17.06724830	     90.00000001	      0.00000000	      0.00000000	      1.79393345	    -15.74985863	      6.67921570	     28.40225192	     90.00000001	      0.00000000	      0.00000000
      0.11000000	     -1.23910214	     -2.00374338	      6.13038189	     -1.91325527	      0.89265356	     -0.19765930	     20.84244457	     -6.29608091	    -11.10418509	     18.80355559	     10.73506722	      0.32818396	      4.42309060	     -7.29002134	     -8.78758307	     -6.84816005	     -5.79008139	     -2.53678556	      4.68715850	     17.77482056	      0.08180635	     14.29373464	      6.49017508	     -8.78758307	    -11.15291556	      3.10761298	     -2.90037287	     -6.72023312	    -13.48619084	     -8.50719115	     17.00279873	     90.00000001	      0.00000000	      0.00000000	      2.11537271	    -15.88583757	      6.84255213	     28.71134319	     90.00000001	      0.00000000	      0.00000000
      0.12000000	     -1.65090361	     -1.70840904	      6.19140541	     -1.90397056	      0.89057795	     -0.19834534	     21.52746614	     -6.57888560	    -11.64066461	     16.08625407	     10.70996135	      0.28075810	      3.36330130	     -6.02116730	     -8.76576672	     -6.97090966	     -5.29177188	     -2.38272358	      4.90135653	     17.54871610	      0.08554481	     14.73737696	      6.39189902	     -8.76576672	    -10.77810819	      2.87790373	     -2.96788503	     -6.79629874	    -13.41097537	     -8.52631299	     17.07707111	     90.00000001	      0.00000000	      0.00000000	      2.31868017	    -16.04671660	      6.94586832	     29.03409292	     90.00000001	      0.00000000	      0.00000000
      0.13000000	     -1.41591670	     -1.75791558	      6.44774338	     -1.89400178	      0.88929508	     -0.19872413	     21.01936980	     -6.28354945	    -11.76888702	     12.55589944	     10.67355611	      0.21914179	      2.53428491	     -5.45069684	     -8.70420165	     -7.91147477	     -5.54264488	     -1.98790023	      4.85854043	     17.80662568	      0.08479753	     15.09918585	      5.97751616	     -8.70420165	    -11.05041096	      3.09073921	     -3.08033072	     -6.81320681	    -13.30980907	     -8.70437945	     16.95080487	     90.00000001	      0.00000000	      0.00000000	      2.60080539	    -16.22510335	      7.16255927	     29.28494967	     90.00000001	      0.00000000	      0.00000000
      0.14000000	     -1.83130350	     -1.40988585	      6.56290691	     -1.88434550	      0.88710143	     -0.19933644	     21.57690662	     -6.66537076	    -12.12949799	     10.08803596	     10.78460519	      0.17606944	      1.98543274	     -4.28314714	     -8.68379873	     -8.06901849	     -5.07085516	     -1.77221480	      5.05744733	     17.68714558	      0.08826911	     15.50218104	      5.89811257	     -8.68379873	    -10.64291155	      2.80591982	     -3.22086472	     -6.91408714	    -13.18532742	     -8.69400843	     16.94783627	     90.00000001	      0.00000000	      0.00000000	      2.74422716	    -16.38767964	      7.24926830	     29.49226925	     90.00000001	      0.00000000	      0.00000000
      0.15000000	     -1.71567356	     -1.30741593	      6.77302783	     -1.87409704	      0.88556168	     -0.19970229	     21.29485750	     -6.59672911	    -12.25007459	      7.36316560	     10.75371740	      0.12851148	      1.64404574	     -3.71417889	     -8.62701585	     -8.94071131	     -5.11245303	     -1.52273586	      5.01031395	     17.83732396	      0.08744647	     15.74766185	      5.62748839	     -8.62701585	    -10.77316200	      2.84877009	     -3.38538676	     -6.95923628	    -13.07156039	     -8.77246607	     16.86840926	     90.00000001	      0.00000000	      0.00000000	      2.89025534	    -16.57428126	      7.40767521	     29.67943265	     90.00000001	      0.00000000	      0.00000000
